<?xml version="1.0" standalone="no"?>
<!DOCTYPE svg PUBLIC "-//W3C//DTD SVG 20010904//EN"
 "http://www.w3.org/TR/2001/REC-SVG-20010904/DTD/svg10.dtd">
<svg version="1.0" xmlns="http://www.w3.org/2000/svg"
 width="19.000000pt" height="13.000000pt" viewBox="0 0 19.000000 13.000000"
 preserveAspectRatio="xMidYMid meet">

<g transform="translate(0.000000,13.000000) scale(0.100000,-0.100000)"
fill="#000000" stroke="none">
<path d="M0 65 l0 -65 39 0 c22 0 44 6 51 15 11 14 14 13 24 -1 8 -10 23 -14
41 -12 26 3 30 8 33 37 2 18 -1 38 -7 44 -6 6 -11 19 -11 30 0 13 -6 17 -22
15 -13 -2 -22 -9 -20 -16 1 -7 -7 -23 -19 -35 l-22 -22 6 24 c9 35 -9 51 -54
51 l-39 0 0 -65z m70 25 c0 -5 -9 -10 -20 -10 -11 0 -20 5 -20 10 0 6 9 10 20
10 11 0 20 -4 20 -10z m90 -20 c0 -5 -7 -10 -16 -10 -8 0 -12 5 -9 10 3 6 10
10 16 10 5 0 9 -4 9 -10z m-90 -25 c0 -8 -9 -15 -20 -15 -11 0 -20 7 -20 15 0
8 9 15 20 15 11 0 20 -7 20 -15z m92 -17 c-9 -9 -15 -9 -24 0 -9 9 -7 12 12
12 19 0 21 -3 12 -12z"/>
</g>
</svg>
