<?xml version="1.0" standalone="no"?>
<!DOCTYPE svg PUBLIC "-//W3C//DTD SVG 20010904//EN"
 "http://www.w3.org/TR/2001/REC-SVG-20010904/DTD/svg10.dtd">
<svg version="1.0" xmlns="http://www.w3.org/2000/svg"
 width="18.000000pt" height="18.000000pt" viewBox="0 0 18.000000 18.000000"
 preserveAspectRatio="xMidYMid meet">

<g transform="translate(0.000000,18.000000) scale(0.100000,-0.100000)"
fill="#000000" stroke="none">
<path d="M29 151 c-20 -20 -29 -39 -29 -61 0 -43 47 -90 90 -90 43 0 90 47 90
90 0 43 -47 90 -90 90 -22 0 -41 -9 -61 -29z m51 -33 c0 -5 -13 -8 -30 -8 -34
0 -37 6 -14 32 16 17 18 17 30 0 7 -9 14 -20 14 -24z m54 34 c2 -4 -4 -13 -14
-20 -16 -10 -21 -9 -30 8 -9 17 -8 20 14 20 14 0 27 -4 30 -8z m26 -41 c0 -14
-6 -17 -27 -13 -25 5 -25 6 -8 18 25 19 35 17 35 -5z m-95 -36 c-37 -30 -45
-31 -45 -6 0 19 5 21 65 29 6 1 -3 -9 -20 -23z m95 -9 c0 -7 -6 -19 -14 -25
-11 -9 -15 -6 -18 14 -4 19 -1 25 13 25 11 0 19 -6 19 -14z m-48 -21 c5 -23 2
-25 -28 -25 -38 0 -41 5 -17 32 23 25 40 23 45 -7z"/>
</g>
</svg>
