<?xml version="1.0" standalone="no"?>
<!DOCTYPE svg PUBLIC "-//W3C//DTD SVG 20010904//EN"
 "http://www.w3.org/TR/2001/REC-SVG-20010904/DTD/svg10.dtd">
<svg version="1.0" xmlns="http://www.w3.org/2000/svg"
 width="18.000000pt" height="18.000000pt" viewBox="0 0 18.000000 18.000000"
 preserveAspectRatio="xMidYMid meet">

<g transform="translate(0.000000,18.000000) scale(0.100000,-0.100000)"
fill="#000000" stroke="none">
<path d="M0 160 c0 -13 7 -20 20 -20 13 0 20 7 20 20 0 13 -7 20 -20 20 -13 0
-20 -7 -20 -20z"/>
<path d="M0 65 c0 -58 2 -65 20 -65 18 0 20 7 20 65 0 58 -2 65 -20 65 -18 0
-20 -7 -20 -65z"/>
<path d="M60 64 c0 -57 2 -64 19 -64 16 0 20 8 23 42 2 31 8 44 21 46 14 3 17
-4 17 -42 0 -39 3 -46 20 -46 18 0 20 7 20 54 0 31 -5 58 -13 64 -6 6 -33 10
-60 10 l-47 0 0 -64z"/>
</g>
</svg>
