<?xml version="1.0" standalone="no"?>
<!DOCTYPE svg PUBLIC "-//W3C//DTD SVG 20010904//EN"
 "http://www.w3.org/TR/2001/REC-SVG-20010904/DTD/svg10.dtd">
<svg version="1.0" xmlns="http://www.w3.org/2000/svg"
 width="18.000000pt" height="14.000000pt" viewBox="0 0 18.000000 14.000000"
 preserveAspectRatio="xMidYMid meet">

<g transform="translate(0.000000,14.000000) scale(0.100000,-0.100000)"
fill="#000000" stroke="none">
<path d="M93 120 c-6 -24 -15 -25 -53 -5 -30 15 -30 15 -30 -12 0 -16 7 -40
14 -55 14 -26 14 -28 -7 -28 -18 0 -19 -2 -7 -10 8 -5 32 -10 53 -10 29 0 46
7 68 29 16 16 29 39 29 50 0 11 5 23 12 27 16 10 -19 34 -50 34 -15 0 -26 -7
-29 -20z"/>
</g>
</svg>
